<svg preserveAspectRatio="none" overflow="visible" style="display: block;" width="360.69" height="82.2627" viewBox="0 0 360.69 82.2627" fill="none" xmlns="http://www.w3.org/2000/svg">
<g id="68f1f2491c24ced949c74a20_titan-logotype.svg" clip-path="url(#clip0_0_4)">
<path id="Vector" d="M80.8419 80.7588V78.2296C82.1518 78.1173 83.4316 78.0549 84.6912 77.8907C88.7961 77.356 90.9763 75.258 91.5902 71.1654C91.8053 69.7774 91.8664 68.3587 91.8664 66.9599C91.8762 49.6844 91.8762 32.4197 91.8664 15.1539C91.8664 13.5704 91.8151 11.9761 91.7129 10.3925C91.4465 6.20749 89.5013 3.90398 85.4068 3.00916C84.2504 2.76206 83.0525 2.75221 81.8756 2.63892C81.5275 2.60772 81.1795 2.5872 80.8621 2.55683V0.00703704H117.142V2.55683C116.825 2.58802 116.477 2.60855 116.129 2.63892C114.952 2.75221 113.754 2.76206 112.598 3.00916C108.503 3.90398 106.557 6.20749 106.292 10.3925C106.19 11.9761 106.138 13.5704 106.138 15.1539C106.128 32.4187 106.128 49.6844 106.138 66.9599C106.138 68.3587 106.199 69.7784 106.414 71.1654C107.029 75.258 109.209 77.356 113.314 77.8907C114.573 78.0549 115.853 78.1173 117.163 78.2296V80.7588H80.8419Z" fill="#111111"/>
<path id="Vector_2" d="M177.561 80.7804V78.2296C176.251 78.1173 174.95 78.0654 173.67 77.88C171.542 77.5712 169.576 76.8621 168.224 75.0517C167.088 73.5298 166.74 71.7305 166.627 69.8799C166.576 69.0263 166.566 6.26906 166.566 6.26906C170.097 6.26906 173.537 6.12539 176.957 6.32076C178.871 6.43406 180.806 6.93811 182.629 7.57514C186.989 9.09713 189.978 12.2027 192.036 16.3057C193.551 19.3291 194.483 22.5471 195.24 25.8276C195.301 26.1256 195.384 26.4137 195.455 26.7019H197.994C196.674 17.817 194.043 0.00703704 194.043 0.00703704H124.892C124.892 0.00703704 122.262 17.817 120.941 26.7019H123.48C123.551 26.4137 123.634 26.1264 123.695 25.8276C124.453 22.5471 125.383 19.3283 126.9 16.3057C128.957 12.2027 131.946 9.09713 136.307 7.57514C138.129 6.93729 140.064 6.43406 141.978 6.32076C145.397 6.12539 148.837 6.26906 152.369 6.26906C152.369 6.26906 152.359 69.0263 152.308 69.8799C152.196 71.7305 151.847 73.5308 150.711 75.0517C149.36 76.8621 147.393 77.5712 145.265 77.88C143.985 78.0647 142.685 78.1163 141.375 78.2296V80.7804H177.561Z" fill="#111111"/>
<path id="Vector_3" d="M332.066 0.0114397V2.54071C333.408 2.65399 334.718 2.68437 335.999 2.89042C339.774 3.49709 342.191 5.22433 342.773 9.29693C342.988 10.7467 343.093 12.2169 343.093 13.6774C343.121 23.1279 343.112 54.542 343.112 54.542L343.102 54.5316C343.102 54.5316 314.5 18.4798 300.516 0.75109C300.096 0.22652 299.697 0.0106179 299.001 0.0106179H271.965V2.69422H273.347C286.941 2.69422 287.607 9.56372 287.607 12.2678C287.587 31.5899 287.668 69.1538 287.464 70.2226C287.177 71.7036 286.871 73.2559 286.195 74.5727C285.048 76.8039 282.827 77.5446 280.503 77.905C279.947 77.9894 279.385 78.0445 278.82 78.0894C274.625 77.729 271.023 76.1661 268.168 72.9382C266.131 70.6446 264.718 67.9816 263.511 65.2052C253.99 43.3021 244.725 21.9236 235.246 -5.4491e-05L214.322 0.0106179V2.55056H216.39C222.194 2.55056 227.036 7.95962 224.825 13.2144C218.007 29.4104 211.988 43.9096 205.149 60.0948C203.604 63.7457 202.027 67.3962 200.114 70.8506C197.882 74.8717 194.35 77.3187 189.703 77.9458C188.781 78.0692 187.85 78.1306 186.877 78.2233V80.774H217.219V78.1824C216.738 78.1619 216.308 78.1717 215.889 78.11C214.599 77.905 213.288 77.7917 212.05 77.4212C209.624 76.6808 208.037 74.3471 208.119 71.8071C208.149 70.8095 208.201 69.7499 208.529 68.8247C209.685 65.5754 210.965 62.3769 212.245 59.1794C212.326 58.9744 212.767 58.8191 213.043 58.8191C223.372 58.7988 233.691 58.8191 244.009 58.7887C244.613 58.7887 244.849 59.0358 245.064 59.5392C245.965 61.7087 246.948 63.8482 247.808 66.0278C248.279 67.2412 248.678 68.4856 248.934 69.7603C249.701 73.5343 247.204 77.2877 243.416 77.9148C242.403 78.079 241.369 78.1413 240.324 78.2536V80.7937H280.842V80.7829H305.175V78.0986C304.377 78.0986 303.609 78.1815 302.862 78.078C301.603 77.9034 300.322 77.7186 299.114 77.3484C296.965 76.6906 295.367 75.2811 294.867 73.0606C294.447 71.1683 294.201 69.2038 294.201 67.2716C294.151 50.3457 294.233 15.5581 294.233 15.5581C294.233 15.5581 329.162 59.5186 346.38 81.1844C347.342 82.387 348.285 82.4389 349.686 82.0384C349.686 82.0384 349.686 11.9181 349.737 10.9109C349.838 9.01863 350.208 7.19863 351.385 5.65611C352.727 3.88702 354.682 3.19826 356.771 2.8896C358.061 2.70489 359.362 2.65317 360.672 2.53989V0.0106179H332.07L332.066 0.0114397ZM214.977 52.7025C219.491 41.977 223.985 31.3034 228.509 20.537C233.085 31.2928 237.61 41.946 242.186 52.7025H214.977Z" fill="#111111"/>
<path id="Vector_4" d="M56.6197 80.7804V78.2296C55.3099 78.1173 54.0095 78.0654 52.7297 77.88C50.601 77.5712 48.6355 76.8621 47.2835 75.0517C46.1477 73.5298 45.7997 71.7305 45.6867 69.8799C45.6351 69.0263 45.6253 6.26906 45.6253 6.26906C49.1569 6.26906 52.5965 6.12539 56.016 6.32076C57.9299 6.43406 59.865 6.93811 61.6878 7.57514C66.0483 9.09713 69.037 12.2027 71.0948 16.3057C72.61 19.3291 73.5418 22.5471 74.2993 25.8276C74.3606 26.1256 74.4432 26.4137 74.5144 26.7019H77.0535C75.7328 17.817 73.102 0.00703704 73.102 0.00703704H3.95159C3.95159 0.00703704 1.32087 17.817 0.000195312 26.7019H2.53939C2.61049 26.4137 2.69302 26.1264 2.75431 25.8276C3.5119 22.5471 4.44276 19.3283 5.95874 16.3057C8.01657 12.2027 11.0052 9.09713 15.3661 7.57514C17.1885 6.93729 19.123 6.43406 21.0378 6.32076C24.4563 6.12539 27.8961 6.26906 31.4282 6.26906C31.4282 6.26906 31.4184 69.0263 31.3669 69.8799C31.255 71.7305 30.906 73.5308 29.77 75.0517C28.4191 76.8621 26.4529 77.5712 24.3239 77.88C23.0441 78.0647 21.7438 78.1163 20.4338 78.2296V80.7804H56.6197Z" fill="#111111"/>
</g>
<defs>
<clipPath id="clip0_0_4">
<rect width="360.69" height="82.2627" fill="white"/>
</clipPath>
</defs>
</svg>
